<?xml version="1.0" encoding="utf-8"?>
<!-- Generator: Adobe Illustrator 23.0.3, SVG Export Plug-In . SVG Version: 6.00 Build 0)  -->
<svg version="1.1" id="圖層_1" xmlns="http://www.w3.org/2000/svg" xmlns:xlink="http://www.w3.org/1999/xlink" x="0px" y="0px"
	 viewBox="0 0 20 17.8" style="enable-background:new 0 0 20 17.8;" xml:space="preserve">
<style type="text/css">
	.st0{fill:none;stroke:#000000;stroke-miterlimit:10;}
</style>
<path class="st0" d="M10,16c-0.2,0-0.4-0.1-0.6-0.2c-0.6-0.6-1.3-1.1-1.8-1.6l0,0c-1.4-1.1-2.7-2.4-3.9-3.7C2.7,9.4,2.1,8,2.1,6.6
	c0-1.2,0.4-2.5,1.3-3.4c0.8-0.9,2-1.4,3.2-1.4c0.9,0,1.8,0.3,2.5,0.9C9.4,3,9.7,3.4,10,3.7c0.3-0.4,0.6-0.8,1-1.1
	c0.7-0.6,1.6-0.9,2.5-0.9c1.2,0,2.4,0.5,3.2,1.4c0.8,0.9,1.3,2.1,1.3,3.4c0,1.4-0.6,2.8-1.6,3.9c-1.2,1.3-2.5,2.6-3.9,3.7
	c-0.5,0.5-1.2,1-1.8,1.6C10.4,15.9,10.2,16,10,16L10,16z"/>
</svg>
