<?xml version="1.0" encoding="utf-8"?>
<!-- Generator: Adobe Illustrator 23.0.3, SVG Export Plug-In . SVG Version: 6.00 Build 0)  -->
<svg version="1.1" id="圖層_1" xmlns="http://www.w3.org/2000/svg" xmlns:xlink="http://www.w3.org/1999/xlink" x="0px" y="0px"
	 viewBox="0 0 21.7 15.6" style="enable-background:new 0 0 21.7 15.6;" xml:space="preserve">
<g transform="translate(-910.2 -663.275)">
	<path d="M926.9,675.6c-0.5,0-1-0.4-1-0.9c0,0,0-0.1,0-0.1v-7c0-0.6,0.4-1,1-1s1,0.4,1,1v7C927.9,675.2,927.5,675.6,926.9,675.6z"/>
	<path d="M930.9,678.6c-0.5,0-1-0.4-1-0.9c0,0,0-0.1,0-0.1v-13c0-0.6,0.4-1,1-1s1,0.4,1,1v13C931.9,678.2,931.5,678.6,930.9,678.6z"
		/>
	<path d="M923,678.9c-0.3,0-0.6-0.1-0.9-0.2l-8-4.5l-1.7,1c-0.7,0.4-1.5,0.2-1.9-0.5c-0.1-0.2-0.2-0.4-0.2-0.7l-0.1-5.9
		c0-0.5,0.3-1,0.7-1.2c0.4-0.3,1-0.3,1.4,0l1.9,1.1l7.6-4.5c0.6-0.3,1.2-0.3,1.8,0c0.6,0.3,0.9,0.9,0.9,1.5l0.2,12.2
		c0,0.7-0.3,1.3-0.9,1.6C923.5,678.9,923.3,678.9,923,678.9z M914.1,671.9l8.7,4.9l-0.1-11.4l-8.3,4.9l-2-1.1v3.8L914.1,671.9z"/>
</g>
</svg>
