<?xml version="1.0" encoding="utf-8"?>
<!-- Generator: Adobe Illustrator 23.0.3, SVG Export Plug-In . SVG Version: 6.00 Build 0)  -->
<svg version="1.1" id="圖層_1" xmlns="http://www.w3.org/2000/svg" xmlns:xlink="http://www.w3.org/1999/xlink" x="0px" y="0px"
	 viewBox="0 0 20 17.8" style="enable-background:new 0 0 20 17.8;" xml:space="preserve">
<path d="M10,17.8c-0.3,0-0.6-0.1-0.8-0.3c-0.8-0.7-1.6-1.4-2.3-2l0,0c-1.8-1.4-3.4-3-5-4.7C0.8,9.6,0,7.8,0,6c0-1.6,0.5-3.1,1.6-4.3
	c1-1.1,2.5-1.8,4-1.7c1.1,0,2.2,0.4,3.1,1.1C9.2,1.5,9.6,1.9,10,2.4c0.4-0.5,0.8-0.9,1.3-1.3c0.9-0.7,2-1.1,3.1-1.1
	c1.5,0,3,0.6,4,1.7C19.5,2.9,20,4.4,20,6c0,1.8-0.8,3.5-2,4.9c-1.5,1.7-3.2,3.2-5,4.7c-0.7,0.6-1.5,1.3-2.3,2
	C10.6,17.7,10.3,17.8,10,17.8L10,17.8z M5.6,1.2c-1.2,0-2.3,0.5-3.1,1.4C1.6,3.5,1.1,4.7,1.2,6c0,1.5,0.7,3,1.7,4.1
	c1.5,1.6,3.1,3.1,4.8,4.5l0,0c0.7,0.6,1.5,1.3,2.3,2c0.8-0.7,1.6-1.4,2.3-2c1.7-1.4,3.3-2.9,4.8-4.5C18.2,9,18.8,7.5,18.8,6
	c0-1.3-0.4-2.5-1.3-3.5c-0.8-0.9-1.9-1.4-3.1-1.4c-0.9,0-1.7,0.3-2.4,0.8c-0.5,0.4-1,1-1.4,1.6C10.4,3.9,10,4,9.6,3.8
	C9.5,3.8,9.4,3.7,9.4,3.6C9,3,8.6,2.4,8,2C7.3,1.5,6.5,1.2,5.6,1.2z"/>
</svg>
