<?xml version="1.0" encoding="utf-8"?>
<!-- Generator: Adobe Illustrator 23.0.3, SVG Export Plug-In . SVG Version: 6.00 Build 0)  -->
<svg version="1.1" id="圖層_1" xmlns="http://www.w3.org/2000/svg" xmlns:xlink="http://www.w3.org/1999/xlink" x="0px" y="0px"
	 viewBox="0 0 297.2 370" style="enable-background:new 0 0 297.2 370;" xml:space="preserve">
<style type="text/css">
	.st0{fill:#FFFFFF;}
</style>
<polygon class="st0" points="8.2,16 23.7,6.7 51.6,51.5 44.4,60.1 191.2,301 193.5,306.3 198.7,306.7 203.8,294.1 219.5,278.3 
	230.6,273 246.6,271.2 261.8,275.4 273.6,281.7 283.3,293.4 289.6,310.4 289.6,323.4 282.6,341.8 268.6,357.3 248.5,363.3 
	227.9,361.9 210,350.1 194.5,326.6 175.5,294.4 139.5,235 88.8,149.6 38.6,65.9 "/>
<path d="M264.8,274.5c-10.4-5.2-22.4-6.4-33.9-3.4c-8,2.2-16.9,8-23.8,15.5c-7.3,8-11.1,16.5-10.4,23.5c0.1,0.5,0.3,1,0.7,1.3
	s0.9,0.5,1.4,0.4c0.2,0,0.3-0.1,0.4-0.1c0.9-0.2,1.4-0.9,1.3-1.7v-0.1c-0.5-6,3.1-13.6,9.8-20.9c6.4-7,14.5-12.3,21.6-14.1
	c23.7-6.2,48,7.9,54.2,31.4c3,11.5,1.4,23.5-4.6,33.8c-5.9,10.2-15.5,17.4-26.9,20.4c-10.5,2.8-21.5,1.7-31.1-3.2
	c-7.1-3.5-13.1-9-17.3-15.9l-7.9-13.2l0,0L10.6,16.6l12.9-7.8l26.1,43.4l-7.5,7.6c-0.8,0.8-0.8,2-0.1,2.8c0.6,0.6,1.4,0.8,2,0.5
	c0.3-0.1,0.6-0.2,0.9-0.5l8.6-8.6c0.7-0.6,0.8-1.7,0.3-2.4L25.8,5c-0.3-0.5-0.8-0.8-1.3-1C24,3.9,23.4,4,23,4.3L6.6,14.2
	c-0.5,0.3-0.8,0.8-1,1.3c-0.1,0.5,0,1.1,0.3,1.5l196.7,326.3c0,0.1,0.1,0.2,0.2,0.3c4.6,7.5,11.1,13.5,18.9,17.3
	c6.9,3.4,14.2,5,21.4,5c17.8,0,34.9-9.8,43.4-26.8C298.4,315.5,288.6,286.4,264.8,274.5z"/>
</svg>
