<?xml version="1.0" encoding="utf-8"?>
<!-- Generator: Adobe Illustrator 23.0.3, SVG Export Plug-In . SVG Version: 6.00 Build 0)  -->
<svg version="1.1" id="圖層_1" xmlns="http://www.w3.org/2000/svg" xmlns:xlink="http://www.w3.org/1999/xlink" x="0px" y="0px"
	 viewBox="0 0 13 13" style="enable-background:new 0 0 13 13;" xml:space="preserve">
<style type="text/css">
	.st0{fill:#FFFFFF;}
</style>
<g>
	<circle class="st0" cx="6.5" cy="6.5" r="6"/>
	<path d="M6.5,1c3,0,5.5,2.5,5.5,5.5S9.5,12,6.5,12S1,9.5,1,6.5S3.5,1,6.5,1 M6.5,0C2.9,0,0,2.9,0,6.5S2.9,13,6.5,13S13,10.1,13,6.5
		S10.1,0,6.5,0L6.5,0z"/>
</g>
<g>
	<polygon class="st0" points="4.7,3.8 9.4,6.5 4.7,9.2 	"/>
	<path d="M5.2,4.6l3.2,1.9L5.2,8.4V4.6 M4.2,2.9v7.2l6.2-3.6L4.2,2.9L4.2,2.9z"/>
</g>
</svg>
