<?xml version="1.0" encoding="utf-8"?>
<!-- Generator: Adobe Illustrator 23.0.3, SVG Export Plug-In . SVG Version: 6.00 Build 0)  -->
<svg version="1.1" id="圖層_1" xmlns="http://www.w3.org/2000/svg" xmlns:xlink="http://www.w3.org/1999/xlink" x="0px" y="0px"
	 viewBox="0 0 34.2 21.2" style="enable-background:new 0 0 34.2 21.2;" xml:space="preserve">
<style type="text/css">
	.st0{fill:none;stroke:#000000;stroke-width:3;stroke-linecap:round;}
</style>
<g transform="translate(-1115.925 -255.182)">
	<path class="st0" d="M1117.4,272.4c0,0,6.7,0,10.7-2.5l0.1-0.1c1.3-0.8,2.5-4,4-6.4l0-0.1c4.1-6.8,10.7-5.5,12.8-4.9
		c0,0,0.2,0.1,0.2,0.1"/>
	<path class="st0" d="M1117.4,258.4c0,0,6.7-1.9,10.7,0.9c1.4,1,2.6,4.5,4.1,7.2l0,0.1c4.1,7.6,10.5,6.8,12.6,6.2"/>
	<g transform="translate(1150.638 254) rotate(90)">
		<path d="M7.5,5.1H2.2c-0.3,0-0.5-0.2-0.5-0.5c0-0.1,0-0.2,0.1-0.3l2.7-3.1C4.7,1,5,1,5.2,1.1c0,0,0,0,0.1,0.1l2.7,3.1
			C8.1,4.5,8.1,4.8,7.9,5C7.8,5.1,7.7,5.1,7.5,5.1L7.5,5.1z"/>
		<path d="M4.9,1.5L2.2,4.6h5.4L4.9,1.5L4.9,1.5 M4.9,0.5c0.3,0,0.6,0.1,0.8,0.3L8.3,4c0.4,0.4,0.3,1-0.1,1.4C8,5.6,7.8,5.6,7.5,5.6
			H2.2c-0.6,0-1-0.4-1-1c0-0.2,0.1-0.5,0.2-0.7l2.7-3.1C4.3,0.7,4.6,0.5,4.9,0.5L4.9,0.5z"/>
	</g>
	<g transform="translate(1150.638 267.847) rotate(90)">
		<path d="M7.5,5.1H2.2c-0.3,0-0.5-0.2-0.5-0.5c0-0.1,0-0.2,0.1-0.3l2.7-3.1C4.7,1,5,1,5.2,1.1c0,0,0,0,0.1,0.1l2.7,3.1
			C8.1,4.5,8.1,4.8,7.9,5C7.8,5.1,7.7,5.1,7.5,5.1L7.5,5.1z"/>
		<path d="M4.9,1.5L2.2,4.6h5.4L4.9,1.5L4.9,1.5 M4.9,0.5c0.3,0,0.6,0.1,0.8,0.3L8.3,4c0.4,0.4,0.3,1-0.1,1.4C8,5.6,7.8,5.6,7.5,5.6
			H2.2c-0.6,0-1-0.4-1-1c0-0.2,0.1-0.5,0.2-0.7l2.7-3.1C4.3,0.7,4.6,0.5,4.9,0.5L4.9,0.5z"/>
	</g>
</g>
</svg>
