<?xml version="1.0" encoding="utf-8"?>
<!-- Generator: Adobe Illustrator 23.0.3, SVG Export Plug-In . SVG Version: 6.00 Build 0)  -->
<svg version="1.1" id="圖層_1" xmlns="http://www.w3.org/2000/svg" xmlns:xlink="http://www.w3.org/1999/xlink" x="0px" y="0px"
	 viewBox="0 0 15 14.8" style="enable-background:new 0 0 15 14.8;" xml:space="preserve">
<path d="M14.8,13.6L10.2,9c0.7-1,1.1-2.2,1.1-3.4C11.3,2.5,8.8,0,5.7,0S0,2.5,0,5.7s2.5,5.7,5.7,5.7l0,0c1.3,0,2.6-0.5,3.6-1.3
	l4.6,4.6c0.3,0.3,0.7,0.3,1,0c0,0,0,0,0,0C15.1,14.3,15,13.9,14.8,13.6z M5.7,1.4c2.4,0,4.3,1.9,4.3,4.3C9.9,8,8,9.9,5.7,9.9
	C3.3,9.9,1.4,8,1.4,5.7C1.4,3.3,3.3,1.4,5.7,1.4C5.6,1.4,5.7,1.4,5.7,1.4z"/>
</svg>
