<?xml version="1.0" encoding="utf-8"?>
<!-- Generator: Adobe Illustrator 23.0.3, SVG Export Plug-In . SVG Version: 6.00 Build 0)  -->
<svg version="1.1" id="圖層_1" xmlns="http://www.w3.org/2000/svg" xmlns:xlink="http://www.w3.org/1999/xlink" x="0px" y="0px"
	 viewBox="0 0 32 36" style="enable-background:new 0 0 32 36;" xml:space="preserve">
<style type="text/css">
	.st0{fill:none;stroke:#000000;stroke-width:3;stroke-linecap:round;}
	.st1{fill:none;stroke:#000000;stroke-width:3;}
</style>
<g transform="translate(-0.4 -0.1)">
	<path class="st0" d="M1.9,6.1c0-2.5,2-4.5,4.5-4.5c0,0,0,0,0,0h1c2.5,0,4.5,2,4.5,4.5c0,0,0,0,0,0v24c0,2.5-2,4.5-4.5,4.5
		c0,0,0,0,0,0h-1c-2.5,0-4.5-2-4.5-4.5c0,0,0,0,0,0V13.5"/>
	<g transform="translate(19.015)">
		<path class="st1" d="M6.4,1.6h1c2.5,0,4.5,2,4.5,4.5c0,0,0,0,0,0v24c0,2.5-2,4.5-4.5,4.5c0,0,0,0,0,0h-1c-2.5,0-4.5-2-4.5-4.5
			c0,0,0,0,0,0v-24C1.9,3.6,3.9,1.6,6.4,1.6C6.4,1.6,6.4,1.6,6.4,1.6z"/>
	</g>
</g>
</svg>
