<?xml version="1.0" encoding="utf-8"?>
<!-- Generator: Adobe Illustrator 23.0.3, SVG Export Plug-In . SVG Version: 6.00 Build 0)  -->
<svg version="1.1" id="圖層_1" xmlns="http://www.w3.org/2000/svg" xmlns:xlink="http://www.w3.org/1999/xlink" x="0px" y="0px"
	 viewBox="0 0 600 600" style="enable-background:new 0 0 600 600;" xml:space="preserve">
<style type="text/css">
	.st0{fill:#231815;}
</style>
<g>
	<path class="st0" d="M570.5,342.1c-0.2,0-0.5,0-0.7-0.1c-1-0.4-1.5-1.6-1.1-2.6c4.8-11.8,7.2-24.6,7.1-38
		c-0.1-11.7-2.3-23.3-6.6-34.5c-0.4-1,0.1-2.2,1.2-2.6c1-0.4,2.2,0.1,2.6,1.2c4.4,11.6,6.7,23.7,6.8,35.9
		c0.1,13.9-2.4,27.2-7.3,39.6C572,341.6,571.3,342.1,570.5,342.1z"/>
</g>
<g>
	<path class="st0" d="M586.3,327.3c-0.2,0-0.4,0-0.6-0.1c-1.1-0.3-1.6-1.4-1.3-2.5c3.1-10,4.1-20.4,3-31.1c-1-9.6-3.6-18.8-7.7-27.3
		c-0.5-1-0.1-2.2,0.9-2.7c1-0.5,2.2-0.1,2.7,0.9c4.4,8.9,7.1,18.6,8.1,28.7c1.1,11.2,0,22.2-3.2,32.7
		C587.9,326.7,587.2,327.3,586.3,327.3z"/>
</g>
<g>
	<path class="st0" d="M37.9,189.6c-0.1,0-0.2,0-0.3,0c-1.1-0.2-1.8-1.2-1.7-2.3c1.6-10.5,5-20.4,10-29.6
		c5.7-10.4,13.2-19.3,22.2-26.4c0.9-0.7,2.1-0.5,2.8,0.3c0.7,0.9,0.5,2.1-0.3,2.8c-8.6,6.8-15.7,15.3-21.2,25.2
		c-4.8,8.7-8.1,18.2-9.6,28.2C39.7,188.9,38.9,189.6,37.9,189.6z"/>
</g>
</svg>
